<?xml version="1.0" encoding="utf-8"?>
<!-- Designed by Vexels.com - 2017 All Rights Reserved - https://vexels.com/terms-and-conditions/  -->

<svg version="1.1" id="Layer_1" xmlns="http://www.w3.org/2000/svg" xmlns:xlink="http://www.w3.org/1999/xlink" x="0px" y="0px"
	 width="1200px" height="1200px" viewBox="0 0 1200 1200" enable-background="new 0 0 1200 1200" xml:space="preserve">
<path fill="#1A1A1A" d="M195.31,869.658c0,0-25.094,29.547-12.296,41.348c0,0,50.692,19.693,47.247,34.453
	c0,0,1.476,4.435-12.808,6.413c0,0-179.16,1.961-166.847-20.188c0,0,5.91-13.289,12.314-15.745c6.377-2.478,2.437-9.857,0.477-8.383
	c-1.969,1.479-2.95-3.454-0.98-5.406c1.97-1.974,2.941-5.9-0.485-6.409c-3.445-0.494-5.9-4.915-2.96-7.384
	c2.96-2.455,5.415-1.956,2.96-2.455c-2.474-0.495-6.899,0.499-3.445-3.936c3.445-4.439,8.355-6.898,4.434-6.412
	c-3.949,0.504-3.949,1.003-1.979-3.931c1.979-4.915,1.979-5.905-0.494-5.905c-2.447,0-3.931,1.975,0-5.406
	c3.939-7.389,2.473-8.378,0-8.868c-2.447-0.495-4.416,3.45-0.505-2.455c3.958-5.914,9.354-7.384,4.444-7.874
	c-4.929-0.495-0.486-4.916,0-8.869c0.504-3.93,1.475-7.375,0-7.375c-1.466,0-0.486-1.475,0.971-3.45
	c1.484-1.974-1.961-3.44-1.961-3.44s7.384-8.869,4.443-9.849c-2.95-0.985-6.898-1.479-6.898-1.479s0.99-0.976,4.416-5.419
	c3.454-4.416,0.998-8.846,0.998-8.846s-2.959-4.425-1.465-7.883c1.465-3.445-0.504-8.851-2.474-10.82
	c-1.969-1.989-5.414-2.474-0.989-6.899c4.434-4.421,0.989-6.391,0.989-6.391s11.306-16.743,5.91-13.788
	c-5.406,2.955-6.394,3.944-3.436,0c2.941-3.935,7.861-9.354,3.922-10.33c-3.922-0.994-3.454-2.464-1.484-5.419
	c1.969-2.959,3.453-8.379,1.484-8.864c-1.97-0.499-2.456-0.985-0.486-4.924c1.97-3.935,1.484-10.33-0.494-11.819
	c-1.97-1.452-2.474-1.452,0-6.39c2.465-4.92,1.979-7.875,0-8.36c-1.97-0.5-3.931-1.485-0.504-5.91
	c3.453-4.43,4.424-7.88,1.484-8.865c-2.951-0.984-1.484-2.954,0.485-6.39c1.97-3.454,2.455-6.409-0.485-7.888
	c-2.951-1.471-1.484-2.455,1.484-4.425c2.94-1.975,3.426-2.959,0.971-2.959c-2.455,0-1.457,0.499,0.485-2.456
	c1.97-2.945,1.484-0.49,1.97-2.945c0.523-2.46,1.494-17.724,4.947-22.153c3.437-4.439,1.484-22.648-1.484-19.199
	c-2.94,3.44-7.384,8.854-3.463-0.491c3.949-9.363,9.858-17.228,4.947-15.268c-4.947,1.965-6.917,4.929-5.918-2.455
	c0.971-7.381,1.979-13.289-1.484-11.814c-3.436,1.475-3.436,1.754-2.941-7.87c0.486-9.625-0.494-12.803-2.968-12.803
	c-2.437,0-2.941-2.456-0.467-8.36c2.437-5.905,2.941-23.143,0.971-20.193c-1.961,2.955-4.92,1.479-0.971-4.434
	c3.922-5.905,5.406-11.311,3.922-10.33c-1.484,0.994-2.456-1.489-0.486-7.389c1.97-5.887,0-14.76-1.97-13.285
	c-1.969,1.489-0.494-2.946-0.998-9.35c-0.467-6.399-1.961-10.825-2.941-11.32c-0.989-0.499,5.91-6.404,6.396-7.888
	c0.485-1.47,2.455-5.905,0.998-7.869c-1.484-1.97,3.426-4.425,3.912-8.361c0.523-3.949-7.367-4.434-2.455-8.373
	c4.947-3.944,6.917-4.916,5.433-6.885c-1.484-1.97-1.008-1.97,2.941-2.964c3.939-0.972,2.95-2.941,2.95-2.941
	s11.315-2.955,7.384-4.435c-3.921-1.47,3.931-31.503,50.711-67.431c46.753-35.933,57.078-54.641,112.214-74.82
	c55.154-20.179,133.406-34.953,160.956-33.949c27.568,0.971,13.779-0.518,13.779-0.518s6.909-0.486,10.335,0.518
	c3.454,0.971,2.968-2.973,4.443-2.479c1.466,0.491,3.436,0.985,6.396,1.961c2.94,1.003,7.366,1.003,7.888-0.966
	c0.477-1.975-8.374-6.409,0.477-1.975c8.859,4.43,13.302,6.4,14.759,3.459c1.484-2.973,0.999-1.004,7.394,0.971
	c6.386,1.97,11.81,2.954,12.295,1.484c0.486-1.484,4.939,0.971,8.365,2.455c3.464,1.479,5.433-2.954,10.344,1.479
	c4.929,4.425,8.383,4.425,9.84,3.44c1.484-0.985,3.454,1.471,10.839,4.435c7.394,2.95,7.394,1.961,10.334,0.976
	c2.96-0.976-1.484-0.486,8.86,1.974c10.353,2.46,6.404,3.931,10.353,2.46c3.912-1.475,3.912-1.475,3.912-1.475
	s15.749,7.861,14.778,3.45c-0.999-4.435,2.941-5.424,8.365-1.47c5.414,3.925,9.84,6.881,9.84,1.951c0-4.916,1.484-2.456,6.88-0.481
	c5.433,1.956,12.817-2.474,12.817-2.474s6.881,6.4,7.88,2.474c0.971-3.949-0.486-3.45,2.455-1.47
	c2.959,1.951,5.323-2.259,8.85-0.505c4.929,2.456,7.385,1.471,7.87-1.974c0.513-3.436-0.971-5.401,5.919-1.956
	c6.889,3.431,12.295-3.445,12.295-3.445s1.97,4.915,6.423,3.926c4.416-0.985,6.386-6.395,6.386-6.395l3.94-0.494
	c0,0,16.739-6.881,16.234-10.34c-0.485-3.44,1.97-2.455,5.91-3.44c3.949-0.984,4.911-5.905,7.403-6.404
	c2.455-0.485,5.891-4.421,5.396-1.48c-0.486,2.964,2.455-1.956,3.939-3.431c1.475-1.48,2.959,3.939,4.416,4.425
	c1.484,0.485-1.457-8.374,10.848-7.389c12.295,0.998,12.295,0.998,12.295,0.998l4.425,0.971c0,0,4.929,7.875,8.869,2.469
	c3.949-5.423,6.89-6.408,6.404-2.954c-0.485,3.44-1.969,6.889,2.455,3.935c4.425-2.95,9.849-5.905,10.335-3.45
	c0.486,2.469-1.97,9.364,3.93,5.42c5.91-3.936,16.254-6.881,12.79-3.45c-3.426,3.45-5.396,4.434,1.494,2.455
	c6.89-1.956,12.304-1.956,8.859,0.508c-3.436,2.455,4.435,1.47,9.858,0.486c5.396-0.994,21.146-0.994,14.751,1.969
	c-6.395,2.941-11.81,1.975-6.395,2.941c5.406,0.994,17.215,0.508,11.819,2.964c-5.424,2.455-1.484,2.941,0.971,3.459
	c2.455,0.485-2.94,3.44,0,5.396c2.978,1.979,9.355,4.434,6.899,5.419c-2.474,0.994,3.939,3.939,6.881,5.905
	c2.941,1.97-2.455,2.469-0.971,4.425c1.456,1.974,44.783,61.05,80.716,81.714c35.941,20.67,122.082,67.931,125.527,79.745
	c0,0,3.939,10.335,11.305,2.946c7.394-7.384,24.123-12.304,29.548-6.399c5.414,5.914,11.324,21.177,11.809,26.583
	c0.486,5.41-7.888,17.229-8.373,23.619c-0.477,6.395-3.94,11.333,0.971,14.777c4.947,3.437,20.183,34.944,25.607,58.563
	c5.424,23.629,6.395,37.404,2.94,55.621c-3.426,18.215-14.75,22.149-15.721,39.872c-0.999,17.715,6.385,31.994,11.297,47.738
	c4.938,15.754,15.263,45.297,19.688,55.136c4.435,9.854,11.343,18.214-2.455,25.099c0,0-16.235,5.905-22.145,5.905
	c0,0-2.959,6.889-8.355,6.889c0,0-4.938,5.42-11.343,4.924c0,0-7.861,11.819-21.155,6.89c0,0-21.356-10.673-23.83-16.894
	c0,0-43.519-49.094-47.239-8.694c0,0-4.37,3.105-6.239-1.86c-1.851-4.979-1.851-10.568-3.088-7.462
	c-1.246,3.102-3.097,6.821-3.72,2.483c-0.632-4.352,1.219-5.589-0.632-4.352c-1.869,1.241-3.738,2.492-4.351-1.237
	c-0.632-3.734,1.237-6.226-0.632-3.734c-1.851,2.483-3.72,6.212-4.956,2.483c-1.237-3.725-2.501-8.695-2.501-6.835
	c0,1.86-1.237,6.212-2.474,1.246c-1.246-4.975-3.115-4.975-3.72-8.705c-0.632-3.719-1.246-9.308-1.896-7.448
	c-0.596,1.859-3.72,1.859-2.465-0.642c1.246-2.469,1.246-4.961,1.246-4.961v2.492c0,0-4.966-9.959-7.458-3.12
	c-2.501,6.839-1.247,9.332-2.501,6.839c-1.237-2.469-2.465-9.94-3.72-13.051c-1.246-3.105-1.869-7.467-2.483-5.598
	c-0.632,1.87,2.483,8.709-0.632,1.87c-3.088-6.826-1.218-4.966-5.589-7.463c-4.343-2.478-9.931-12.428-11.177-8.066
	c-1.255,4.338-2.501,6.835-3.72,1.241c-1.254-5.603-1.869-9.954-3.738-10.569c-1.851-0.623-4.352,4.352-6.835-1.25
	c-2.501-5.602-3.106-7.462-5.607-8.081c-2.482-0.609,0-0.609-1.869-4.338c-1.869-3.733-44.737-19.281-44.133-23.628
	c0,0-7.44,11.809-7.44,18.03c0,6.208,0,19.267-2.492,16.152c-2.492-3.097-1.246-0.618-1.246,2.492c0,3.111-2.474,2.483-2.474,6.212
	c0,3.739-1.869,7.467-1.869,7.467s-2.492,18.021-3.72,15.53c-1.246-2.487,3.088-4.351,1.228,2.492
	c-1.859,6.839-1.859,8.09-4.343,7.449c-2.501-0.61-3.115-1.241-2.501,3.11c0.65,4.348,0-3.11-2.474,6.208
	c-2.501,9.336-5.589,13.064-5.589,13.064s-0.641-2.492-1.859,4.975c-1.255,7.453-1.255,7.453-1.255,7.453s-1.457-3.674-2.501,2.479
	c-1.219,7.467-1.851,13.06-3.701,6.839c-1.86-6.207-1.86-9.318-3.124-3.102c-1.228,6.212-4.169,6.427-5.598,9.941
	c-3.72,9.318-8.081,15.543-9.309,11.819c-1.237-3.729-0.623-13.056-1.237-3.729c-0.632,9.318,0.614,6.83-4.352,13.669
	c-4.984,6.839-7.457,18.031-7.457,15.53c0-2.478-1.255,4.98-3.116,8.09c-1.869,3.102-5.589,8.072-5.589,8.072
	s-2.492,1.246-3.124,6.216c-0.604,4.979-3.72,9.954-3.72,9.954s-1.246-1.883-1.869,2.479c-0.604,4.347-2.465,0.609-3.72,6.839
	c-1.246,6.212-4.966,9.94-4.966,9.94s1.228-1.869-0.623,3.106c-1.869,4.97-1.869,4.97-1.869,4.97l-0.632,3.728
	c0,0-1.237-1.236-1.869,4.352c-0.614,5.603-1.869,13.051,0,13.679c1.869,0.623-6.202-5.589,1.255,4.352
	c7.458,9.941,73.964,21.75,76.446,41.636c0,0,7.467,22.368-8.713,21.131c0,0-133.607,9.946-141.074-5.603
	c-7.457-15.529-5.589-13.037-4.993-15.529c0.65-2.488-1.832-5.598-2.464-2.488c-0.623,3.111-3.124,3.111-2.474,0
	c0.605-3.11,4.343-8.066,1.851-5.589c-2.501,2.479-6.835,4.966-4.966,0.61c1.851-4.338,5.589-5.589,1.851-4.338
	c-3.72,1.232-4.975,10.568-3.72,1.232c1.246-9.313,4.334-9.313,1.246-9.313c-3.115,0-5.616,2.493-2.501-3.11
	c3.124-5.593-91.353,64.018-82.667,13.056c0,0,4.993-9.946,1.254-14.292c0,0-11.177-28.595,1.87-32.947
	c0,0,10.572-10.567-4.343-22.372c-14.924-11.8-90.758-63.391-93.222-126.8c0,0-139.866,33.573-159.114,17.412l-7.476-3.11
	c0,0,14.301,92.608,23.637,104.426c9.308,11.8,6.835,16.148,1.87,17.398c-4.994,1.237-2.501,1.237-2.501,1.237
	s24.233,23.623,35.41,25.484c11.205,1.869,49.108-16.162,59.067,1.869c0,0,7.457,10.568-25.507,31.063
	c0,0-46.588,24.242-68.97,26.744c-22.374,2.479-82.668,2.479-98.188-6.23c-15.538-8.699-18.662-21.745-15.538-32.936
	c3.097-11.191-1.255-16.78-3.124-15.53c-1.869,1.228-5.589,1.86-4.333-1.859c1.237-3.729,2.465-8.708,0-6.839
	c-2.501,1.859-6.844,5.589-6.221,0.609c0.604-4.961,5.589-6.839,0.604-4.961c-4.947,1.86-8.694,8.69-8.694,1.233
	c0-7.463,2.482-9.95,0-7.463c-2.483,2.493-6.826,4.98-5.607,0.628c1.265-4.356,3.124-6.839,1.265-4.356
	c-1.869,2.492-6.202,5.603-4.352,1.869c1.869-3.729,6.826-6.216,1.869-3.729c-4.974,2.488-6.22,1.86-7.467-4.351
	c-1.236-6.199-1.887-6.647-4.956-6.199c-4.37,0.61-5.625-3.119-5.625-3.119c-1.851,1.241-1.851,1.241-1.851,1.241L195.31,869.658z"
	/>
</svg>
